<mxfile host="drawio-plugin" modified="2022-06-17T15:44:30.556Z" agent="5.0 (Macintosh; Intel Mac OS X 10_15_7) AppleWebKit/537.36 (KHTML, like Gecko) Chrome/97.0.4692.45 Safari/537.36" etag="loPmtd8ll_2Z_MzLsUAH" version="15.5.4" type="embed"><diagram id="GcGH9l2TOfhBz7mty4LY" name="Page-1"><mxGraphModel dx="1142" dy="606" grid="1" gridSize="10" guides="1" tooltips="1" connect="1" arrows="1" fold="1" page="1" pageScale="1" pageWidth="800" pageHeight="400" math="1" shadow="0"><root><mxCell id="0"/><mxCell id="1" parent="0"/><mxCell id="HWwoWb1QDNuTZwTQWmOq-1" value="" style="endArrow=classic;html=1;fontSize=12;fontColor=#000000;exitX=0;exitY=0.5;exitDx=0;exitDy=0;entryX=1;entryY=0.5;entryDx=0;entryDy=0;" parent="1" source="HWwoWb1QDNuTZwTQWmOq-2" target="HWwoWb1QDNuTZwTQWmOq-3" edge="1"><mxGeometry width="50" height="50" relative="1" as="geometry"><mxPoint x="40" y="431" as="sourcePoint"/><mxPoint x="90" y="381" as="targetPoint"/></mxGeometry></mxCell><mxCell id="HWwoWb1QDNuTZwTQWmOq-2" value="" style="rounded=1;whiteSpace=wrap;html=1;fillColor=#FAFAFA;fontSize=12;fontColor=#000000;strokeColor=#6C8EBF;" parent="1" vertex="1"><mxGeometry x="350" y="231" width="120" height="79" as="geometry"/></mxCell><mxCell id="HWwoWb1QDNuTZwTQWmOq-3" value="" style="rounded=1;whiteSpace=wrap;html=1;fillColor=#FAFAFA;fontSize=12;fontColor=#000000;labelBackgroundColor=none;strokeColor=#6C8EBF;" parent="1" vertex="1"><mxGeometry x="130" y="231" width="120" height="79" as="geometry"/></mxCell><mxCell id="HWwoWb1QDNuTZwTQWmOq-5" value="" style="rounded=0;whiteSpace=wrap;html=1;fillColor=#FAFAFA;strokeColor=#6c8ebf;" parent="1" vertex="1"><mxGeometry x="130" y="80" width="100" height="100" as="geometry"/></mxCell><mxCell id="HWwoWb1QDNuTZwTQWmOq-6" value="" style="endArrow=classic;html=1;exitX=1;exitY=0.5;exitDx=0;exitDy=0;" parent="1" source="HWwoWb1QDNuTZwTQWmOq-5" edge="1"><mxGeometry width="50" height="50" relative="1" as="geometry"><mxPoint x="290" y="150" as="sourcePoint"/><mxPoint x="330" y="130" as="targetPoint"/></mxGeometry></mxCell><mxCell id="HWwoWb1QDNuTZwTQWmOq-10" value="" style="endArrow=classic;html=1;fillColor=#fff2cc;strokeColor=#d6b656;" parent="1" edge="1"><mxGeometry width="50" height="50" relative="1" as="geometry"><mxPoint x="50" y="129.5" as="sourcePoint"/><mxPoint x="130" y="129.5" as="targetPoint"/></mxGeometry></mxCell><mxCell id="HWwoWb1QDNuTZwTQWmOq-15" value="Observations&lt;br&gt;\(s \in R^g\)" style="text;html=1;align=center;verticalAlign=middle;whiteSpace=wrap;rounded=0;fontSize=14;fontStyle=0;fontColor=#D79B00;" parent="1" vertex="1"><mxGeometry x="40" y="100" width="80" height="20" as="geometry"/></mxCell><mxCell id="HWwoWb1QDNuTZwTQWmOq-16" value="&lt;div&gt;State hypothesis&lt;/div&gt;&lt;div&gt;s = 7&lt;/div&gt;" style="text;html=1;strokeColor=none;fillColor=none;align=center;verticalAlign=middle;whiteSpace=wrap;rounded=0;fontSize=14;spacing=3;" parent="1" vertex="1"><mxGeometry x="235" y="110" width="80" height="20" as="geometry"/></mxCell><mxCell id="HWwoWb1QDNuTZwTQWmOq-17" value="U&lt;sub&gt;2&lt;/sub&gt;" style="ellipse;whiteSpace=wrap;html=1;fontSize=12;fillColor=#D4D4D4;" parent="1" vertex="1"><mxGeometry x="170" y="90" width="20" height="20" as="geometry"/></mxCell><mxCell id="HWwoWb1QDNuTZwTQWmOq-18" value="U&lt;sub&gt;1&lt;/sub&gt;" style="ellipse;whiteSpace=wrap;html=1;fontSize=12;verticalAlign=middle;fillColor=#E0E0E0;" parent="1" vertex="1"><mxGeometry x="140" y="90" width="20" height="20" as="geometry"/></mxCell><mxCell id="HWwoWb1QDNuTZwTQWmOq-19" value="U&lt;sub&gt;3&lt;/sub&gt;" style="ellipse;whiteSpace=wrap;html=1;fontSize=12;fillColor=#EBEBEB;" parent="1" vertex="1"><mxGeometry x="200" y="90" width="20" height="20" as="geometry"/></mxCell><mxCell id="HWwoWb1QDNuTZwTQWmOq-20" value="U&lt;sub&gt;4&lt;/sub&gt;" style="ellipse;whiteSpace=wrap;html=1;fontSize=12;fillColor=#808080;" parent="1" vertex="1"><mxGeometry x="140" y="120" width="20" height="20" as="geometry"/></mxCell><mxCell id="HWwoWb1QDNuTZwTQWmOq-21" value="U&lt;sub&gt;5&lt;/sub&gt;" style="ellipse;whiteSpace=wrap;html=1;fontSize=12;fillColor=#D4D4D4;" parent="1" vertex="1"><mxGeometry x="170" y="120" width="20" height="20" as="geometry"/></mxCell><mxCell id="HWwoWb1QDNuTZwTQWmOq-22" value="U&lt;sub&gt;6&lt;/sub&gt;" style="ellipse;whiteSpace=wrap;html=1;fontSize=12;fillColor=#ABABAB;" parent="1" vertex="1"><mxGeometry x="200" y="120" width="20" height="20" as="geometry"/></mxCell><mxCell id="HWwoWb1QDNuTZwTQWmOq-23" value="U&lt;sub&gt;7&lt;/sub&gt;" style="ellipse;whiteSpace=wrap;html=1;fontSize=12;fillColor=#262626;fontColor=#FFFFFF;" parent="1" vertex="1"><mxGeometry x="140" y="150" width="20" height="20" as="geometry"/></mxCell><mxCell id="HWwoWb1QDNuTZwTQWmOq-24" value="U&lt;sub&gt;8&lt;/sub&gt;" style="ellipse;whiteSpace=wrap;html=1;fontSize=12;fillColor=#8C8C8C;" parent="1" vertex="1"><mxGeometry x="170" y="150" width="20" height="20" as="geometry"/></mxCell><mxCell id="HWwoWb1QDNuTZwTQWmOq-25" value="U&lt;sub&gt;9&lt;/sub&gt;" style="ellipse;whiteSpace=wrap;html=1;fontSize=12;fillColor=#B3B3B3;" parent="1" vertex="1"><mxGeometry x="200" y="150" width="20" height="20" as="geometry"/></mxCell><mxCell id="HWwoWb1QDNuTZwTQWmOq-26" value="State-(D)SOM" style="text;html=1;strokeColor=none;fillColor=none;align=center;verticalAlign=middle;whiteSpace=wrap;rounded=0;fontSize=14;fontStyle=1" parent="1" vertex="1"><mxGeometry x="130" y="180" width="100" height="30" as="geometry"/></mxCell><mxCell id="HWwoWb1QDNuTZwTQWmOq-27" value="&lt;table style=&quot;text-align: center ; width: 100% ; height: 100% ; border-collapse: collapse&quot; width=&quot;100%&quot; border=&quot;1&quot;&gt;&lt;tbody&gt;&lt;tr&gt;&lt;td align=&quot;center&quot;&gt;&lt;br&gt;&lt;/td&gt;&lt;td align=&quot;center&quot;&gt;&lt;b&gt;Action 1&lt;/b&gt;&lt;/td&gt;&lt;td align=&quot;center&quot;&gt;&lt;b&gt;Action 2&lt;/b&gt;&lt;/td&gt;&lt;td&gt;&lt;b&gt;Action&lt;/b&gt; &lt;b&gt;3&lt;/b&gt;&lt;/td&gt;&lt;td&gt;&lt;b&gt;Action 4&lt;/b&gt;&lt;/td&gt;&lt;/tr&gt;&lt;tr&gt;&lt;td align=&quot;center&quot;&gt;&lt;b&gt;State 1&lt;/b&gt;&lt;/td&gt;&lt;td align=&quot;center&quot;&gt;Q&lt;sub&gt;s1,a1&lt;/sub&gt;&lt;/td&gt;&lt;td align=&quot;center&quot;&gt;Q&lt;sub&gt;s1,a2&lt;/sub&gt;&lt;/td&gt;&lt;td&gt;Q&lt;sub&gt;s1,a3&lt;/sub&gt;&lt;/td&gt;&lt;td&gt;Q&lt;sub&gt;s1,a4&lt;/sub&gt;&lt;/td&gt;&lt;/tr&gt;&lt;tr&gt;&lt;td&gt;...&lt;/td&gt;&lt;td&gt;...&lt;/td&gt;&lt;td&gt;...&lt;/td&gt;&lt;td&gt;...&lt;/td&gt;&lt;td&gt;...&lt;/td&gt;&lt;/tr&gt;&lt;tr&gt;&lt;td align=&quot;center&quot;&gt;&lt;b&gt;State 7&lt;/b&gt;&lt;br&gt;&lt;/td&gt;&lt;td style=&quot;background-color: #d8d8d8&quot; align=&quot;center&quot;&gt;Q&lt;sub&gt;s7,a1&lt;/sub&gt;&lt;/td&gt;&lt;td style=&quot;background-color: #e0e1e2&quot; align=&quot;center&quot;&gt;Q&lt;sub&gt;s7,a2&lt;/sub&gt;&lt;/td&gt;&lt;td style=&quot;background-color: #565656&quot;&gt;&lt;font color=&quot;#FFFFFF&quot;&gt;Q&lt;sub&gt;s7,a3&lt;/sub&gt;&lt;/font&gt;&lt;/td&gt;&lt;td style=&quot;background-color: #e0e1e2&quot;&gt;Q&lt;sub&gt;s7,a4&lt;/sub&gt;&lt;/td&gt;&lt;/tr&gt;&lt;tr&gt;&lt;td&gt;...&lt;/td&gt;&lt;td&gt;...&lt;/td&gt;&lt;td&gt;...&lt;/td&gt;&lt;td&gt;...&lt;/td&gt;&lt;td&gt;...&lt;/td&gt;&lt;/tr&gt;&lt;tr&gt;&lt;td&gt;&lt;b&gt;State 9&lt;/b&gt;&lt;/td&gt;&lt;td&gt;Q&lt;sub&gt;s9,a1&lt;/sub&gt;&lt;br&gt;&lt;/td&gt;&lt;td&gt;Q&lt;sub&gt;s9,a2&lt;/sub&gt;&lt;br&gt;&lt;/td&gt;&lt;td&gt;Q&lt;sub&gt;s9,a3&lt;/sub&gt;&lt;br&gt;&lt;/td&gt;&lt;td&gt;Q&lt;sub&gt;s9,a4&lt;/sub&gt;&lt;br&gt;&lt;/td&gt;&lt;/tr&gt;&lt;/tbody&gt;&lt;/table&gt;" style="text;html=1;strokeColor=#6C8EBF;fillColor=#FAFAFA;overflow=fill;shadow=0;rounded=0;sketch=0;glass=0;" parent="1" vertex="1"><mxGeometry x="330" y="49" width="290" height="140" as="geometry"/></mxCell><mxCell id="HWwoWb1QDNuTZwTQWmOq-28" value="" style="rounded=0;whiteSpace=wrap;html=1;fillColor=#FAFAFA;strokeColor=#6c8ebf;" parent="1" vertex="1"><mxGeometry x="510" y="231" width="70" height="70" as="geometry"/></mxCell><mxCell id="HWwoWb1QDNuTZwTQWmOq-29" value="W&lt;sub&gt;2&lt;/sub&gt;" style="ellipse;whiteSpace=wrap;html=1;fontSize=12;fillColor=none;" parent="1" vertex="1"><mxGeometry x="550" y="241" width="20" height="20" as="geometry"/></mxCell><mxCell id="HWwoWb1QDNuTZwTQWmOq-30" value="W&lt;sub&gt;1&lt;/sub&gt;" style="ellipse;whiteSpace=wrap;html=1;fontSize=12;verticalAlign=middle;fillColor=none;" parent="1" vertex="1"><mxGeometry x="520" y="241" width="20" height="20" as="geometry"/></mxCell><mxCell id="HWwoWb1QDNuTZwTQWmOq-31" value="W&lt;sub&gt;3&lt;/sub&gt;" style="ellipse;whiteSpace=wrap;html=1;fontSize=12;fillColor=#ffffff;" parent="1" vertex="1"><mxGeometry x="520" y="271" width="20" height="20" as="geometry"/></mxCell><mxCell id="HWwoWb1QDNuTZwTQWmOq-32" value="W&lt;sub&gt;4&lt;/sub&gt;" style="ellipse;whiteSpace=wrap;html=1;fontSize=12;fillColor=none;" parent="1" vertex="1"><mxGeometry x="550" y="271" width="20" height="20" as="geometry"/></mxCell><mxCell id="HWwoWb1QDNuTZwTQWmOq-33" value="Action-(D)SOM" style="text;html=1;strokeColor=none;fillColor=none;align=center;verticalAlign=middle;whiteSpace=wrap;rounded=0;fontSize=14;fontStyle=1" parent="1" vertex="1"><mxGeometry x="510" y="301" width="70" height="30" as="geometry"/></mxCell><mxCell id="HWwoWb1QDNuTZwTQWmOq-34" value="Proposed action &lt;br&gt;identifier j = 3" style="endArrow=classic;html=1;fontSize=12;fontColor=#000000;exitX=0.691;exitY=1.007;exitDx=0;exitDy=0;exitPerimeter=0;entryX=0.5;entryY=0;entryDx=0;entryDy=0;labelBackgroundColor=none;" parent="1" source="HWwoWb1QDNuTZwTQWmOq-27" target="HWwoWb1QDNuTZwTQWmOq-31" edge="1"><mxGeometry x="-0.5117" y="50" width="50" height="50" relative="1" as="geometry"><mxPoint x="40" y="420" as="sourcePoint"/><mxPoint x="90" y="370" as="targetPoint"/><mxPoint as="offset"/></mxGeometry></mxCell><mxCell id="HWwoWb1QDNuTZwTQWmOq-35" value="[ &lt;i&gt;W&lt;sub&gt;3,1&lt;/sub&gt;&lt;/i&gt;, ..., &lt;i&gt;W&lt;sub&gt;3,k&lt;/sub&gt;&lt;/i&gt;&amp;nbsp;]" style="text;html=1;resizable=0;points=[];autosize=1;align=left;verticalAlign=top;spacingTop=-4;fontSize=12;fontColor=#000000;" parent="1" vertex="1"><mxGeometry x="360" y="236" width="100" height="20" as="geometry"/></mxCell><mxCell id="HWwoWb1QDNuTZwTQWmOq-36" value="&lt;b style=&quot;font-size: 14px;&quot;&gt;Q-Table&lt;/b&gt;" style="text;html=1;resizable=0;points=[];autosize=1;align=left;verticalAlign=top;spacingTop=-4;fontSize=14;fontColor=#FAFAFA;" parent="1" vertex="1"><mxGeometry x="430" y="29" width="70" height="20" as="geometry"/></mxCell><mxCell id="HWwoWb1QDNuTZwTQWmOq-37" value="Proposed action parameters" style="text;html=1;strokeColor=none;fillColor=none;align=center;verticalAlign=middle;whiteSpace=wrap;rounded=0;fontSize=14;fontColor=#000000;" parent="1" vertex="1"><mxGeometry x="350" y="281" width="120" height="20" as="geometry"/></mxCell><mxCell id="HWwoWb1QDNuTZwTQWmOq-38" value="" style="endArrow=none;html=1;fontSize=12;fontColor=#000000;exitX=0;exitY=0.5;exitDx=0;exitDy=0;entryX=0.22;entryY=1.079;entryDx=0;entryDy=0;entryPerimeter=0;" parent="1" source="HWwoWb1QDNuTZwTQWmOq-31" target="HWwoWb1QDNuTZwTQWmOq-35" edge="1"><mxGeometry width="50" height="50" relative="1" as="geometry"><mxPoint x="40" y="420" as="sourcePoint"/><mxPoint x="90" y="370" as="targetPoint"/></mxGeometry></mxCell><mxCell id="HWwoWb1QDNuTZwTQWmOq-39" value="" style="endArrow=none;html=1;fontSize=12;fontColor=#000000;exitX=0;exitY=0.5;exitDx=0;exitDy=0;entryX=0.42;entryY=1.021;entryDx=0;entryDy=0;entryPerimeter=0;" parent="1" source="HWwoWb1QDNuTZwTQWmOq-31" target="HWwoWb1QDNuTZwTQWmOq-35" edge="1"><mxGeometry width="50" height="50" relative="1" as="geometry"><mxPoint x="40" y="420" as="sourcePoint"/><mxPoint x="90" y="370" as="targetPoint"/></mxGeometry></mxCell><mxCell id="HWwoWb1QDNuTZwTQWmOq-40" value="" style="endArrow=none;html=1;fontSize=12;fontColor=#000000;exitX=0;exitY=0.5;exitDx=0;exitDy=0;entryX=0.603;entryY=1.05;entryDx=0;entryDy=0;entryPerimeter=0;" parent="1" source="HWwoWb1QDNuTZwTQWmOq-31" target="HWwoWb1QDNuTZwTQWmOq-35" edge="1"><mxGeometry width="50" height="50" relative="1" as="geometry"><mxPoint x="40" y="420" as="sourcePoint"/><mxPoint x="90" y="370" as="targetPoint"/></mxGeometry></mxCell><mxCell id="HWwoWb1QDNuTZwTQWmOq-41" value="" style="endArrow=none;html=1;fontSize=12;fontColor=#000000;entryX=0.751;entryY=1.079;entryDx=0;entryDy=0;entryPerimeter=0;exitX=0;exitY=0.5;exitDx=0;exitDy=0;" parent="1" source="HWwoWb1QDNuTZwTQWmOq-31" target="HWwoWb1QDNuTZwTQWmOq-35" edge="1"><mxGeometry width="50" height="50" relative="1" as="geometry"><mxPoint x="510" y="300" as="sourcePoint"/><mxPoint x="90" y="370" as="targetPoint"/></mxGeometry></mxCell><mxCell id="HWwoWb1QDNuTZwTQWmOq-42" value="[ &lt;i&gt;W'&lt;sub&gt;3,1&lt;/sub&gt;&lt;/i&gt;, ..., &lt;i&gt;W'&lt;sub&gt;3,k&lt;/sub&gt;&lt;/i&gt;&amp;nbsp;]" style="text;html=1;resizable=0;points=[];autosize=1;align=left;verticalAlign=top;spacingTop=-4;fontSize=12;fontColor=#000000;" parent="1" vertex="1"><mxGeometry x="140" y="236" width="110" height="20" as="geometry"/></mxCell><mxCell id="HWwoWb1QDNuTZwTQWmOq-43" value="Perturbed action parameters" style="text;html=1;strokeColor=none;fillColor=none;align=center;verticalAlign=middle;whiteSpace=wrap;rounded=0;fontSize=14;fontColor=#000000;" parent="1" vertex="1"><mxGeometry x="130" y="281" width="120" height="20" as="geometry"/></mxCell><mxCell id="HWwoWb1QDNuTZwTQWmOq-46" value="Random Noise" style="rounded=0;whiteSpace=wrap;html=1;fillColor=#ffffff;fontSize=14;fontColor=#000000;labelBackgroundColor=#ffffff;fontStyle=1;strokeColor=#6C8EBF;" parent="1" vertex="1"><mxGeometry x="270" y="245.5" width="60" height="50" as="geometry"/></mxCell><mxCell id="HWwoWb1QDNuTZwTQWmOq-49" value="Action&lt;br style=&quot;font-size: 14px&quot;&gt;\( a \in R^d \)" style="endArrow=classic;html=1;fontSize=14;fontColor=#B85450;fillColor=#f8cecc;strokeColor=#b85450;labelBackgroundColor=none;" parent="1" edge="1"><mxGeometry width="50" height="50" relative="1" as="geometry"><mxPoint x="130" y="261.0000000000002" as="sourcePoint"/><mxPoint x="50" y="261.0000000000002" as="targetPoint"/></mxGeometry></mxCell></root></mxGraphModel></diagram></mxfile>